<svg width="168" height="38" viewBox="0 0 168 38" fill="none" xmlns="http://www.w3.org/2000/svg">
<path d="M5.57812 30L0.109375 7.09375H4.84375L8.29688 22.8281L12.4844 7.09375H17.9844L22 23.0938L25.5156 7.09375H30.1719L24.6094 30H19.7031L15.1406 12.875L10.5938 30H5.57812ZM30.9062 21.4688C30.9062 20.0104 31.2656 18.599 31.9844 17.2344C32.7031 15.8698 33.7188 14.8281 35.0312 14.1094C36.3542 13.3906 37.8281 13.0312 39.4531 13.0312C41.9635 13.0312 44.0208 13.849 45.625 15.4844C47.2292 17.1094 48.0312 19.1667 48.0312 21.6562C48.0312 24.1667 47.2188 26.25 45.5938 27.9062C43.9792 29.5521 41.9427 30.375 39.4844 30.375C37.9635 30.375 36.5104 30.0312 35.125 29.3438C33.75 28.6562 32.7031 27.651 31.9844 26.3281C31.2656 24.9948 30.9062 23.375 30.9062 21.4688ZM35.4062 21.7031C35.4062 23.349 35.7969 24.6094 36.5781 25.4844C37.3594 26.3594 38.3229 26.7969 39.4688 26.7969C40.6146 26.7969 41.5729 26.3594 42.3438 25.4844C43.125 24.6094 43.5156 23.3385 43.5156 21.6719C43.5156 20.0469 43.125 18.7969 42.3438 17.9219C41.5729 17.0469 40.6146 16.6094 39.4688 16.6094C38.3229 16.6094 37.3594 17.0469 36.5781 17.9219C35.7969 18.7969 35.4062 20.0573 35.4062 21.7031ZM55.6875 30H51.2969V13.4062H55.375V15.7656C56.0729 14.651 56.6979 13.9167 57.25 13.5625C57.8125 13.2083 58.4479 13.0312 59.1562 13.0312C60.1562 13.0312 61.1198 13.3073 62.0469 13.8594L60.6875 17.6875C59.9479 17.2083 59.2604 16.9688 58.625 16.9688C58.0104 16.9688 57.4896 17.1406 57.0625 17.4844C56.6354 17.8177 56.2969 18.4271 56.0469 19.3125C55.8073 20.1979 55.6875 22.0521 55.6875 24.875V30ZM79.1719 30H75.0938V27.5625C74.4167 28.5104 73.6146 29.2188 72.6875 29.6875C71.7708 30.1458 70.8438 30.375 69.9062 30.375C68 30.375 66.3646 29.6094 65 28.0781C63.6458 26.5365 62.9688 24.3906 62.9688 21.6406C62.9688 18.8281 63.6302 16.6927 64.9531 15.2344C66.276 13.7656 67.9479 13.0312 69.9688 13.0312C71.8229 13.0312 73.4271 13.8021 74.7812 15.3438V7.09375H79.1719V30ZM67.4531 21.3438C67.4531 23.1146 67.6979 24.3958 68.1875 25.1875C68.8958 26.3333 69.8854 26.9062 71.1562 26.9062C72.1667 26.9062 73.026 26.4792 73.7344 25.625C74.4427 24.7604 74.7969 23.474 74.7969 21.7656C74.7969 19.8594 74.4531 18.4896 73.7656 17.6562C73.0781 16.8125 72.1979 16.3906 71.125 16.3906C70.0833 16.3906 69.2083 16.8073 68.5 17.6406C67.8021 18.4635 67.4531 19.6979 67.4531 21.3438ZM82.375 22.5469L86.875 22.1094C87.1458 23.6198 87.6927 24.7292 88.5156 25.4375C89.349 26.1458 90.4688 26.5 91.875 26.5C93.3646 26.5 94.4844 26.1875 95.2344 25.5625C95.9948 24.9271 96.375 24.1875 96.375 23.3438C96.375 22.8021 96.2135 22.3438 95.8906 21.9688C95.5781 21.5833 95.026 21.25 94.2344 20.9688C93.6927 20.7812 92.4583 20.4479 90.5312 19.9688C88.0521 19.3542 86.3125 18.599 85.3125 17.7031C83.9062 16.4427 83.2031 14.9062 83.2031 13.0938C83.2031 11.9271 83.5312 10.8385 84.1875 9.82812C84.8542 8.80729 85.8073 8.03125 87.0469 7.5C88.2969 6.96875 89.8021 6.70312 91.5625 6.70312C94.4375 6.70312 96.599 7.33333 98.0469 8.59375C99.5052 9.85417 100.271 11.5365 100.344 13.6406L95.7188 13.8438C95.5208 12.6667 95.0938 11.8229 94.4375 11.3125C93.7917 10.7917 92.8177 10.5312 91.5156 10.5312C90.1719 10.5312 89.1198 10.8073 88.3594 11.3594C87.8698 11.7135 87.625 12.1875 87.625 12.7812C87.625 13.3229 87.8542 13.7865 88.3125 14.1719C88.8958 14.6615 90.3125 15.1719 92.5625 15.7031C94.8125 16.2344 96.474 16.7865 97.5469 17.3594C98.6302 17.9219 99.474 18.6979 100.078 19.6875C100.693 20.6667 101 21.8802 101 23.3281C101 24.6406 100.635 25.8698 99.9062 27.0156C99.1771 28.1615 98.1458 29.0156 96.8125 29.5781C95.4792 30.1302 93.8177 30.4062 91.8281 30.4062C88.9323 30.4062 86.7083 29.7396 85.1562 28.4062C83.6042 27.0625 82.6771 25.1094 82.375 22.5469ZM119.953 30H115.562V21.5312C115.562 19.7396 115.469 18.5833 115.281 18.0625C115.094 17.5312 114.786 17.1198 114.359 16.8281C113.943 16.5365 113.438 16.3906 112.844 16.3906C112.083 16.3906 111.401 16.599 110.797 17.0156C110.193 17.4323 109.776 17.9844 109.547 18.6719C109.328 19.3594 109.219 20.6302 109.219 22.4844V30H104.828V13.4062H108.906V15.8438C110.354 13.9688 112.177 13.0312 114.375 13.0312C115.344 13.0312 116.229 13.2083 117.031 13.5625C117.833 13.9062 118.438 14.349 118.844 14.8906C119.26 15.4323 119.547 16.0469 119.703 16.7344C119.87 17.4219 119.953 18.4062 119.953 19.6875V30Z" fill="url(#paint0_linear_11_142)"/>
<path d="M128.556 12C129.17 12 129.667 12.5027 129.667 13.125V14.25H134.112C134.726 14.25 135.223 14.7528 135.223 15.3751C135.223 15.9973 134.726 16.5001 134.112 16.5001H133.778L133.487 17.3122C132.917 18.9013 132.059 20.3533 130.98 21.6013C131.473 21.9107 131.986 22.1849 132.521 22.4275L134.271 23.215L136.431 18.2931C136.608 17.8853 137.008 17.6251 137.445 17.6251C137.883 17.6251 138.282 17.8853 138.459 18.2931L142.904 28.4183C143.154 28.9878 142.9 29.6523 142.341 29.9019C141.782 30.1515 141.122 29.8984 140.876 29.3323L140.181 27.7503H134.712L134.018 29.3323C133.768 29.9019 133.112 30.155 132.552 29.9019C131.993 29.6488 131.74 28.9843 131.99 28.4183L133.372 25.2717L131.622 24.4842C130.823 24.1256 130.059 23.6967 129.337 23.2045C128.597 23.8092 127.788 24.3365 126.924 24.776L125.719 25.3807C125.17 25.6584 124.504 25.4334 124.229 24.878C123.955 24.3225 124.177 23.6475 124.726 23.3697L125.924 22.7615C126.49 22.4732 127.028 22.1392 127.535 21.7666C127.056 21.3201 126.604 20.8384 126.184 20.3287L125.833 19.8997C125.441 19.4216 125.504 18.7114 125.976 18.3142C126.448 17.9169 127.149 17.9802 127.542 18.4583L127.896 18.8872C128.295 19.3759 128.733 19.8294 129.195 20.2478C130.15 19.179 130.903 17.9239 131.4 16.5423L131.417 16.5001H124.115C123.497 16.5001 123 15.9973 123 15.3751C123 14.7528 123.497 14.25 124.111 14.25H127.445V13.125C127.445 12.5027 127.941 12 128.556 12ZM137.445 21.5205L135.698 25.5002H139.192L137.445 21.5205Z" fill="url(#paint1_linear_11_142)"/>
<path d="M153.115 13.3179L152.689 14.5714H149.625C148.177 14.5714 147 15.7246 147 17.1429V27.4286C147 28.8469 148.177 30 149.625 30H165.375C166.823 30 168 28.8469 168 27.4286V17.1429C168 15.7246 166.823 14.5714 165.375 14.5714H162.311L161.885 13.3179C161.618 12.5304 160.867 12 160.018 12H154.982C154.133 12 153.382 12.5304 153.115 13.3179ZM157.5 18.4286C159.674 18.4286 161.438 20.1562 161.438 22.2857C161.438 24.4152 159.674 26.1429 157.5 26.1429C155.326 26.1429 153.562 24.4152 153.562 22.2857C153.562 20.1562 155.326 18.4286 157.5 18.4286Z" fill="url(#paint2_linear_11_142)"/>
<path d="M150 18V35" stroke="url(#paint3_linear_11_142)" stroke-width="6" stroke-linecap="round"/>
<defs>
<linearGradient id="paint0_linear_11_142" x1="0" y1="18.5" x2="123" y2="18.5" gradientUnits="userSpaceOnUse">
<stop stop-color="#32E1FE"/>
<stop offset="1" stop-color="#015FEA"/>
</linearGradient>
<linearGradient id="paint1_linear_11_142" x1="123" y1="21" x2="143" y2="21" gradientUnits="userSpaceOnUse">
<stop stop-color="#015FEA"/>
<stop offset="1" stop-color="#32E1FE"/>
</linearGradient>
<linearGradient id="paint2_linear_11_142" x1="147" y1="21" x2="168" y2="21" gradientUnits="userSpaceOnUse">
<stop stop-color="#32E1FE"/>
<stop offset="1" stop-color="#015FEA"/>
</linearGradient>
<linearGradient id="paint3_linear_11_142" x1="141" y1="26.5" x2="158" y2="26.5" gradientUnits="userSpaceOnUse">
<stop stop-color="#2ED7FC"/>
<stop offset="1" stop-color="#22B8F7"/>
</linearGradient>
</defs>
</svg>
