<svg width="48" height="43" viewBox="0 0 48 43" fill="none" xmlns="http://www.w3.org/2000/svg">
<path d="M13.3339 0C14.809 0 16.0007 1.201 16.0007 2.68755V5.3751H26.6678C28.1429 5.3751 29.3346 6.57609 29.3346 8.06264C29.3346 9.54919 28.1429 10.7502 26.6678 10.7502H25.8678L25.1677 12.6903C23.801 16.4864 21.7426 19.955 19.1508 22.9365C20.3342 23.6756 21.5676 24.3307 22.851 24.9102L27.0511 26.7915L32.2347 15.0335C32.6597 14.0592 33.6181 13.4377 34.6681 13.4377C35.7182 13.4377 36.6765 14.0592 37.1016 15.0335L47.7687 39.2214C48.3687 40.582 47.7603 42.1693 46.4186 42.7656C45.0769 43.3619 43.4935 42.7572 42.9018 41.405L41.2351 37.6257H28.1095L26.4428 41.405C25.8428 42.7656 24.2677 43.3703 22.926 42.7656C21.5842 42.1609 20.9759 40.5736 21.5759 39.2214L24.8927 31.7047L20.6925 29.8234C18.7758 28.9667 16.9424 27.9421 15.209 26.7663C13.4339 28.2109 11.4922 29.4706 9.41706 30.5205L6.52528 31.965C5.20855 32.6285 3.60849 32.091 2.95012 30.764C2.29176 29.437 2.82512 27.8245 4.14184 27.161L7.01696 25.7081C8.37535 25.0194 9.66707 24.2215 10.8838 23.3313C9.73374 22.2647 8.65036 21.114 7.64199 19.8963L6.80029 18.8716C5.85858 17.7294 6.00859 16.0329 7.14197 15.0839C8.27535 14.1348 9.95875 14.286 10.9005 15.4282L11.7505 16.4528C12.7089 17.6202 13.7589 18.7037 14.8673 19.7031C17.1591 17.1499 18.9675 14.1516 20.1592 10.851L20.2009 10.7502H2.67511C1.19172 10.7502 0 9.54919 0 8.06264C0 6.57609 1.19172 5.3751 2.66678 5.3751H10.6671V2.68755C10.6671 1.201 11.8588 0 13.3339 0ZM34.6681 22.7434L30.4763 32.2506H38.86L34.6681 22.7434Z" fill="url(#paint0_linear_72_2)"/>
<defs>
<linearGradient id="paint0_linear_72_2" x1="0" y1="21.5" x2="48" y2="21.5" gradientUnits="userSpaceOnUse">
<stop stop-color="#015FEA"/>
<stop offset="1" stop-color="#32E1FE"/>
</linearGradient>
</defs>
</svg>
