<svg width="108" height="104" viewBox="0 0 108 104" fill="none" xmlns="http://www.w3.org/2000/svg">
<path d="M46.8364 4.7216C47.888 8.21224 45.869 11.9094 42.3147 12.9421C25.637 17.8166 13.481 32.9978 13.481 50.9673C13.481 72.8612 31.5678 90.6242 53.8608 90.6242C76.1538 90.6242 94.2406 72.8612 94.2406 50.9673C94.2406 33.0185 82.0846 17.8373 65.4069 12.9421C61.8526 11.9094 59.8126 8.21224 60.8852 4.7216C61.9578 1.23097 65.7013 -0.772528 69.2556 0.280858C91.4645 6.78707 107.68 27.008 107.68 50.9673C107.68 80.173 83.5778 103.843 53.8398 103.843C24.1017 103.843 0 80.173 0 50.9673C0 27.008 16.215 6.78707 38.466 0.280858C42.0203 -0.751874 45.7848 1.23097 46.8364 4.7216Z" fill="url(#paint0_linear_6_71)"/>
<defs>
<linearGradient id="paint0_linear_6_71" x1="0" y1="51.9216" x2="107.68" y2="51.9216" gradientUnits="userSpaceOnUse">
<stop stop-color="#32E1FE"/>
<stop offset="1" stop-color="#015FEA"/>
</linearGradient>
</defs>
</svg>
