<svg width="58" height="45" viewBox="0 0 58 45" fill="none" xmlns="http://www.w3.org/2000/svg">
<path d="M14.5 45C6.49479 45 0 38.5212 0 30.5357C0 24.1674 4.12847 18.7634 9.85799 16.8248C9.72708 16.0513 9.66667 15.2679 9.66667 14.4643C9.66667 6.47879 16.1615 0 24.1667 0C29.7451 0 34.5885 3.14397 37.0153 7.74442C38.4451 6.91071 40.1167 6.42857 41.8889 6.42857C47.2257 6.42857 51.5556 10.7478 51.5556 16.0714C51.5556 17.6484 51.1729 19.1451 50.4983 20.4609C54.9288 22.5 58 26.9598 58 32.1429C58 39.2444 52.2302 45 45.1111 45H14.5ZM30.7118 15.971C29.7653 15.0268 28.2347 15.0268 27.2983 15.971L20.0483 23.2031C19.1017 24.1473 19.1017 25.6741 20.0483 26.6083C20.9948 27.5424 22.5253 27.5525 23.4618 26.6083L26.5833 23.4944V33.75C26.5833 35.0859 27.6608 36.1607 29 36.1607C30.3392 36.1607 31.4167 35.0859 31.4167 33.75V23.4944L34.5382 26.6083C35.4847 27.5525 37.0153 27.5525 37.9517 26.6083C38.8882 25.6641 38.8983 24.1373 37.9517 23.2031L30.7017 15.971H30.7118Z" fill="#32E1FE"/>
</svg>
